<svg xmlns="http://www.w3.org/2000/svg" xmlns:xlink="http://www.w3.org/1999/xlink" version="1.1" x="0px" y="0px" viewBox="0 0 100 125" enable-background="new 0 0 100 100" xml:space="preserve"><path fill="#000000" d="M95.085,57.356c-2.71-0.89-5.602,0.337-6.909,2.759l-20.463-6.646c0.318-1.271,0.508-2.594,0.508-3.967  c0-1.237-0.151-2.437-0.415-3.596l20.564-6.684c1.387,2.199,4.128,3.269,6.715,2.431c3.056-0.992,4.73-4.274,3.735-7.329  c-0.99-3.053-4.274-4.73-7.33-3.731c-2.713,0.877-4.33,3.567-3.964,6.297l-20.454,6.646c-0.96-2.394-2.468-4.498-4.382-6.167  l12.714-17.501c2.413,0.964,5.26,0.221,6.86-1.976c1.888-2.604,1.314-6.238-1.29-8.13c-2.596-1.885-6.238-1.312-8.122,1.291  c-1.679,2.308-1.405,5.429,0.496,7.422L60.701,35.887c-2.108-1.333-4.54-2.195-7.161-2.428V11.832  c2.515-0.641,4.385-2.916,4.385-5.632c0-3.21-2.607-5.812-5.817-5.812c-3.213,0-5.819,2.602-5.819,5.812  c0,2.856,2.059,5.223,4.771,5.717v21.523c-2.631,0.173-5.08,0.969-7.219,2.248L31.122,18.182c1.664-1.996,1.835-4.933,0.236-7.128  c-1.885-2.6-5.523-3.176-8.121-1.291c-2.597,1.892-3.176,5.526-1.288,8.125c1.68,2.312,4.734,3.015,7.221,1.821l12.641,17.399  c-1.954,1.623-3.514,3.7-4.528,6.07l-20.563-6.68c0.173-2.592-1.415-5.067-3.996-5.905c-3.057-0.995-6.339,0.675-7.33,3.731  c-0.995,3.055,0.681,6.337,3.731,7.329c2.714,0.882,5.605-0.344,6.916-2.772l20.465,6.649c-0.322,1.273-0.513,2.6-0.513,3.971  c0,1.237,0.151,2.435,0.414,3.593l-20.569,6.684c-1.388-2.197-4.127-3.268-6.712-2.428c-3.055,0.99-4.726,4.274-3.731,7.329  c0.99,3.056,4.273,4.728,7.33,3.731c2.712-0.879,4.333-3.567,3.96-6.301l20.459-6.648c0.959,2.396,2.47,4.503,4.381,6.171  L28.803,79.134c-2.412-0.956-5.259-0.215-6.854,1.983c-1.891,2.597-1.313,6.232,1.284,8.121c2.597,1.887,6.24,1.312,8.125-1.288  c1.677-2.307,1.409-5.435-0.497-7.426l12.647-17.409c2.113,1.335,4.543,2.197,7.167,2.427v21.629  c-2.521,0.636-4.388,2.916-4.388,5.629c0,3.215,2.604,5.817,5.819,5.822c3.21-0.005,5.817-2.607,5.812-5.822  c0.005-2.851-2.055-5.221-4.766-5.71V65.565c2.627-0.174,5.085-0.97,7.22-2.251l12.714,17.501c-1.661,1.999-1.834,4.934-0.239,7.135  c1.888,2.603,5.526,3.175,8.126,1.288c2.599-1.889,3.178-5.524,1.286-8.121c-1.676-2.312-4.73-3.018-7.219-1.824L62.403,61.896  c1.954-1.627,3.519-3.705,4.531-6.072l20.551,6.678c-0.168,2.593,1.42,5.07,4.005,5.916c3.056,0.99,6.336-0.682,7.33-3.737  C99.811,61.629,98.141,58.341,95.085,57.356z"/><text x="0" y="115" fill="#000000" font-size="5px" font-weight="bold" font-family="'Helvetica Neue', Helvetica, Arial-Unicode, Arial, Sans-serif">Created by iconoci</text><text x="0" y="120" fill="#000000" font-size="5px" font-weight="bold" font-family="'Helvetica Neue', Helvetica, Arial-Unicode, Arial, Sans-serif">from the Noun Project</text></svg>