<?xml version="1.0" encoding="utf-8"?>
<!-- Generator: Adobe Illustrator 19.0.0, SVG Export Plug-In . SVG Version: 6.00 Build 0)  -->
<svg version="1.1" id="Layer_1" xmlns="http://www.w3.org/2000/svg" xmlns:xlink="http://www.w3.org/1999/xlink" x="0px" y="0px"
	 viewBox="-49 38 100 125" style="enable-background:new -49 38 100 125;" xml:space="preserve">
<style type="text/css">
	.st0{fill:#24221B;}
</style>
<path class="st0" d="M46.1,95.4c-2.7-0.9-5.6,0.3-6.9,2.8l-20.5-6.6c0.3-1.3,0.5-2.6,0.5-4c0-1.2-0.2-2.4-0.4-3.6l20.6-6.7
	c1.4,2.2,4.1,3.3,6.7,2.4c3.1-1,4.7-4.3,3.7-7.3c-1-3.1-4.3-4.7-7.3-3.7c-2.7,0.9-4.3,3.6-4,6.3l-20.5,6.6c-1-2.4-2.5-4.5-4.4-6.2
	l12.7-17.5c2.4,1,5.3,0.2,6.9-2c1.9-2.6,1.3-6.2-1.3-8.1c-2.6-1.9-6.2-1.3-8.1,1.3c-1.7,2.3-1.4,5.4,0.5,7.4L11.7,73.9
	c-2.1-1.3-4.5-2.2-7.2-2.4V49.8c2.5-0.6,4.4-2.9,4.4-5.6c0-3.2-2.6-5.8-5.8-5.8c-3.2,0-5.8,2.6-5.8,5.8c0,2.9,2.1,5.2,4.8,5.7v21.5
	c-2.6,0.2-5.1,1-7.2,2.2l-12.7-17.5c1.7-2,1.8-4.9,0.2-7.1c-1.9-2.6-5.5-3.2-8.1-1.3c-2.6,1.9-3.2,5.5-1.3,8.1
	c1.7,2.3,4.7,3,7.2,1.8l12.6,17.4c-2,1.6-3.5,3.7-4.5,6.1l-20.6-6.7c0.2-2.6-1.4-5.1-4-5.9c-3.1-1-6.3,0.7-7.3,3.7
	c-1,3.1,0.7,6.3,3.7,7.3c2.7,0.9,5.6-0.3,6.9-2.8l20.5,6.6c-0.3,1.3-0.5,2.6-0.5,4c0,1.2,0.2,2.4,0.4,3.6l-20.6,6.7
	c-1.4-2.2-4.1-3.3-6.7-2.4c-3.1,1-4.7,4.3-3.7,7.3c1,3.1,4.3,4.7,7.3,3.7c2.7-0.9,4.3-3.6,4-6.3l20.5-6.6c1,2.4,2.5,4.5,4.4,6.2
	l-12.7,17.5c-2.4-1-5.3-0.2-6.9,2c-1.9,2.6-1.3,6.2,1.3,8.1c2.6,1.9,6.2,1.3,8.1-1.3c1.7-2.3,1.4-5.4-0.5-7.4l12.6-17.4
	c2.1,1.3,4.5,2.2,7.2,2.4v21.6c-2.5,0.6-4.4,2.9-4.4,5.6c0,3.2,2.6,5.8,5.8,5.8c3.2,0,5.8-2.6,5.8-5.8c0-2.9-2.1-5.2-4.8-5.7v-21.5
	c2.6-0.2,5.1-1,7.2-2.3l12.7,17.5c-1.7,2-1.8,4.9-0.2,7.1c1.9,2.6,5.5,3.2,8.1,1.3c2.6-1.9,3.2-5.5,1.3-8.1c-1.7-2.3-4.7-3-7.2-1.8
	L13.4,99.9c2-1.6,3.5-3.7,4.5-6.1l20.6,6.7c-0.2,2.6,1.4,5.1,4,5.9c3.1,1,6.3-0.7,7.3-3.7C50.8,99.6,49.1,96.3,46.1,95.4z"/>
</svg>
