<?xml version="1.0" encoding="utf-8"?>
<!-- Generator: Adobe Illustrator 19.0.0, SVG Export Plug-In . SVG Version: 6.00 Build 0)  -->
<svg version="1.2" baseProfile="tiny" id="Layer_1" xmlns="http://www.w3.org/2000/svg" xmlns:xlink="http://www.w3.org/1999/xlink"
	 x="0px" y="0px" viewBox="0 0 50 50" xml:space="preserve">
<g>
	<path fill="#D0BD7E" d="M47.4,8.5L47.4,8.5 M35.4,3C28.7,3,23.3,8.3,23,14.9c-6.3-1-12.1-4.3-16.1-9.3C6.4,5.1,5.8,4.8,5.1,4.8
		c-0.1,0-0.2,0-0.3,0C4,4.9,3.3,5.4,3,6.1c-5,10.6-2.6,18.3,0.3,22.9c2.1,3.4,5,5.9,7.8,7.6C8.9,37.6,6.6,38,4.2,38
		c-1.3,0-2.4,1.1-2.4,2.4c0,2.3,3.6,3.9,4.8,4.4c2.2,1,5.8,2.1,10.5,2.1c11.5,0,18.8-5.5,22.8-10.1c5-5.7,7.9-13.2,7.9-20.7
		c0-0.3,0-0.6,0-0.9c0.2-0.5,0.3-1,0.5-1.4c0.5-1.8,0.9-2.7,1.5-4.8c0.1-0.2,0.2-0.5,0.2-0.8c0-1.3-1-2.3-2.3-2.3l0,0l0,0h-0.8
		c-0.8,0-1.2,0-1.6,0c-0.5,0-0.7,0-1.2,0h-0.2C41.4,4.2,38.4,3,35.4,3L35.4,3z"/>
</g>
</svg>
