<?xml version="1.0" encoding="utf-8"?>
<!-- Generator: Adobe Illustrator 19.0.0, SVG Export Plug-In . SVG Version: 6.00 Build 0)  -->
<svg version="1.2" baseProfile="tiny" id="Layer_1" xmlns="http://www.w3.org/2000/svg" xmlns:xlink="http://www.w3.org/1999/xlink"
	 x="0px" y="0px" viewBox="-49 38 100 125" xml:space="preserve">
<path fill="#24221B" stroke="#24221B" stroke-miterlimit="10" d="M-41.8,45.2v85.7h85.7V45.2H-41.8z M42.2,129.1h-82.3V46.8h82.3
	V129.1z"/>
<g>
	<path fill="#24221B" d="M17.9,76.7c3.7,0,7,1.5,9.3,4c1.9,0.1,2.1,0.1,3.1,0.1c0.6,0,1.4,0,3,0c-1,3.6-1.3,4.4-2.6,8.5
		c0,0.5,0,1.1,0,1.7c0,16.9-12.8,36.3-36.3,36.3c-11.2,0-17.6-5.6-16.5-5.6c6,0,11.5-2,15.9-5.5c-5.6-0.1-25.9-13-14.6-37.2
		c6.3,7.7,15.7,12.8,26.3,13.3c-0.2-0.9-0.3-1.9-0.3-2.9C5.1,82.4,10.8,76.7,17.9,76.7 M33.3,80.8L33.3,80.8 M17.9,73.7
		C9.3,73.7,2.4,80.5,2.1,89c-8.1-1.3-15.5-5.5-20.7-11.9c-0.6-0.7-1.4-1.1-2.3-1.1c-0.1,0-0.2,0-0.4,0c-1,0.1-1.9,0.8-2.3,1.7
		c-6.4,13.6-3.3,23.5,0.4,29.4c2.7,4.3,6.4,7.6,10,9.7c-2.8,1.2-5.8,1.8-8.9,1.8c-1.7,0-3.1,1.4-3.1,3.1c0,3,4.6,5,6.2,5.7
		c2.8,1.3,7.4,2.7,13.5,2.7c14.8,0,24.1-7,29.2-12.9c6.4-7.3,10.1-16.9,10.1-26.5c0-0.4,0-0.8,0-1.2c0.2-0.7,0.4-1.3,0.6-1.8
		c0.7-2.3,1.1-3.4,1.9-6.2c0.1-0.3,0.2-0.6,0.2-1c0-1.7-1.3-3-3-3c0,0,0,0,0,0c0,0,0,0,0,0l-1,0c-1,0-1.6,0-2,0c-0.6,0-0.9,0-1.6,0
		l-0.2,0C25.6,75.2,21.8,73.7,17.9,73.7L17.9,73.7z"/>
</g>
</svg>
